<?xml version="1.0" standalone="no"?>
<!DOCTYPE svg PUBLIC "-//W3C//DTD SVG 20010904//EN"
 "http://www.w3.org/TR/2001/REC-SVG-20010904/DTD/svg10.dtd">
<svg version="1.0" xmlns="http://www.w3.org/2000/svg"
 width="2048.000000pt" height="2048.000000pt" viewBox="0 0 2048.000000 2048.000000"
 preserveAspectRatio="xMidYMid meet">

<g transform="translate(0.000000,2048.000000) scale(0.100000,-0.100000)"
fill="#000000" stroke="none">
<path d="M0 10240 l0 -10240 10240 0 10240 0 0 10240 0 10240 -10240 0 -10240
0 0 -10240z m10720 6385 c949 -105 1799 -460 2567 -1073 67 -53 122 -99 123
-102 0 -3 -61 -31 -135 -63 l-135 -59 -75 59 c-306 237 -594 417 -898 559
-392 182 -779 305 -1182 374 -282 48 -382 55 -755 55 -360 0 -469 -9 -740 -56
-486 -85 -1081 -307 -1470 -548 l-82 -51 -67 38 c-157 92 -180 108 -178 117 6
17 229 151 400 240 582 302 1156 466 1837 525 151 13 619 4 790 -15z m-3643
-1342 c0 -71 3 -146 7 -168 7 -38 4 -43 -44 -98 -29 -31 -56 -54 -61 -51 -6 3
-5 11 2 20 10 12 9 13 -4 8 -12 -4 -14 0 -10 18 3 15 2 19 -4 10 -7 -10 -15
-7 -34 11 -14 12 -24 28 -22 33 2 6 -3 17 -12 24 -9 7 -15 8 -15 2 0 -6 6 -12
13 -15 6 -2 9 -7 5 -11 -3 -4 -16 -3 -27 3 -17 10 -20 9 -15 -4 4 -8 13 -15
22 -15 38 0 -2 -12 -53 -16 -51 -3 -55 -2 -46 14 8 14 6 19 -5 19 -8 0 -14 -5
-13 -11 3 -26 -3 -36 -28 -51 -27 -15 -27 -16 -3 -10 21 5 22 4 7 -5 -9 -6
-22 -8 -28 -5 -13 8 -51 -24 -43 -36 3 -5 -2 -12 -10 -15 -9 -3 -13 -11 -9
-17 3 -5 1 -7 -5 -3 -6 3 -23 -12 -39 -34 -28 -40 -111 -135 -100 -114 40 73
544 644 569 644 3 0 6 -57 5 -127z m8773 0 c7 -32 31 -147 55 -256 42 -198 42
-199 21 -206 -246 -88 -569 -192 -575 -185 -9 10 -106 493 -100 498 2 1 101
37 219 80 118 42 244 87 280 101 36 13 70 24 77 24 6 1 17 -25 23 -56z m-9350
-537 c0 -2 -8 -10 -17 -17 -16 -13 -17 -12 -4 4 13 16 21 21 21 13z m-30 -40
c0 -2 -8 -10 -17 -17 -16 -13 -17 -12 -4 4 13 16 21 21 21 13z m-30 -40 c0 -2
-8 -10 -17 -17 -16 -13 -17 -12 -4 4 13 16 21 21 21 13z m10055 -2508 c2 -13
18 -90 35 -173 17 -82 38 -185 47 -228 10 -47 13 -81 7 -86 -9 -9 -546 -191
-563 -191 -5 0 -19 42 -31 93 -32 138 -89 401 -87 403 1 0 124 42 272 94 149
51 277 96 285 101 23 13 29 11 35 -13z m-3058 -390 c-2 -13 -4 -3 -4 22 0 25
2 35 4 23 2 -13 2 -33 0 -45z m3284 -716 c36 -180 63 -330 60 -334 -9 -10
-572 -201 -577 -195 -5 5 -134 632 -134 651 0 6 98 45 218 85 119 41 249 87
287 102 39 15 72 25 75 22 3 -2 35 -151 71 -331z m-1945 41 c-3 -27 -24 -120
-46 -208 -22 -87 -40 -163 -40 -167 0 -5 8 -5 18 1 9 5 202 73 427 151 226 78
446 155 489 171 44 16 83 26 86 22 8 -9 44 -186 96 -463 19 -107 36 -199 37
-204 1 -5 -11 -13 -28 -19 -149 -50 -1122 -386 -1198 -413 -54 -20 -100 -34
-103 -32 -2 3 12 37 31 77 63 130 205 480 205 506 0 3 -185 -56 -485 -154 -99
-33 -301 -99 -450 -146 -148 -48 -481 -157 -740 -242 -258 -85 -591 -194 -740
-243 -148 -49 -403 -132 -565 -186 -451 -148 -620 -202 -620 -197 0 2 57 32
128 65 70 33 420 205 778 383 357 178 780 386 940 463 448 215 1065 519 1439
708 187 95 342 172 344 173 2 1 1 -20 -3 -46z m-10341 -103 c4 -6 46 -105 95
-220 l87 -208 -251 -101 c-138 -56 -256 -104 -261 -107 -6 -2 -28 35 -49 83
-113 258 -148 344 -145 348 6 5 502 214 511 215 4 0 10 -5 13 -10z m1181
-2827 c49 -115 89 -212 89 -216 0 -7 -423 -176 -504 -202 -19 -6 -15 -15 -141
286 l-57 136 226 88 c124 49 237 94 251 101 14 7 30 13 36 14 6 0 51 -93 100
-207z m1649 -95 c3 -106 5 -262 3 -346 l-3 -153 -255 -94 c-140 -51 -338 -124
-440 -163 -102 -39 -188 -67 -192 -64 -3 4 -52 115 -108 247 -56 132 -110 259
-120 282 -10 24 -15 45 -11 47 4 3 173 69 376 147 383 147 677 263 704 279 37
22 39 14 46 -182z m-1398 -488 c145 -351 184 -453 177 -460 -13 -13 -494 -192
-506 -188 -6 2 -20 28 -33 58 -12 30 -62 150 -110 265 -48 116 -88 216 -89
224 -1 14 475 211 503 207 8 0 33 -47 58 -106z m1256 -1579 c40 -16 99 -73
118 -116 11 -24 19 -63 19 -100 0 -77 -28 -128 -93 -172 -115 -77 -272 -40
-332 80 -56 113 -11 248 100 298 44 20 147 25 188 10z m-993 -146 c170 -44
340 -133 426 -227 l31 -33 -102 -127 -103 -127 -58 45 c-142 110 -260 154
-439 161 -136 6 -239 -13 -338 -62 -163 -82 -292 -253 -327 -432 -20 -101 -9
-282 23 -372 46 -131 129 -236 245 -312 244 -160 577 -136 837 61 l65 49 44
-47 c68 -73 166 -186 166 -192 0 -3 -29 -31 -65 -63 -185 -165 -413 -248 -685
-249 -304 -1 -529 84 -729 276 -183 176 -275 383 -288 647 -16 321 107 614
339 809 123 103 326 192 503 220 33 5 125 7 205 5 116 -3 166 -9 250 -30z
m2419 -456 c144 -35 273 -136 332 -262 56 -120 59 -155 59 -684 l0 -483 -179
0 -180 0 -3 443 c-4 496 -4 495 -80 582 -56 63 -123 90 -228 90 -105 0 -159
-23 -224 -96 -80 -89 -80 -86 -84 -581 l-3 -438 -180 0 -179 0 0 710 0 710
175 0 175 0 0 -75 c0 -41 3 -75 6 -75 4 0 28 20 54 44 71 67 168 109 295 129
44 7 190 -1 244 -14z m1561 -9 c116 -33 186 -75 275 -165 59 -59 89 -99 116
-155 67 -136 81 -198 87 -367 l4 -153 -520 0 -521 0 10 -32 c31 -110 106 -200
205 -245 68 -31 211 -42 306 -24 72 14 162 57 227 107 43 33 46 34 61 17 137
-151 161 -182 151 -201 -33 -61 -207 -167 -336 -204 -68 -19 -103 -23 -230
-22 -177 0 -233 12 -375 82 -166 81 -295 236 -347 416 -30 103 -40 250 -24
351 54 334 269 555 599 615 72 14 228 3 312 -20z m-2892 -707 l-3 -708 -177
-3 -178 -2 0 710 0 710 180 0 180 0 -2 -707z"/>
<path d="M6916 15134 c-11 -8 -16 -14 -10 -14 13 0 39 18 34 24 -3 2 -14 -2
-24 -10z"/>
<path d="M6870 15120 c0 -5 5 -10 10 -10 6 0 10 5 10 10 0 6 -4 10 -10 10 -5
0 -10 -4 -10 -10z"/>
<path d="M6800 15050 c0 -6 7 -10 15 -10 8 0 15 2 15 4 0 2 -7 6 -15 10 -8 3
-15 1 -15 -4z"/>
<path d="M9780 5103 c-117 -40 -186 -123 -225 -265 l-13 -48 355 0 355 0 -7
33 c-26 135 -103 237 -208 276 -70 26 -190 28 -257 4z"/>
</g>
</svg>
